# xmcd
#
# Track frame offsets: 
#        150
#        19255
#        33105
#        48745
#        72302
#        87942
#        102937
#        117060
#        137085
#        144152
#        158887
#        169910
#        194610
#        210142
#
# Disc length: 3020 seconds
#
# Revision: 0
# Processed by: cddbd v1.5.1PL2 Copyright (c) Steve Scherf et al.
# Submitted via: ExactAudioCopy v0.95a3
#
DISCID=bc0bca0e
DTITLE=Dr. Valter and the Lawbreakers - Sitting on the Top of the World
DYEAR=1996
DGENRE=Blues
TTITLE0=Keep Rockin' Mama
TTITLE1=Canned Heat Blues
TTITLE2=Good Morning, Little Schoolgirl
TTITLE3=Mother Before This Time Another Year
TTITLE4=Cocaine Habit Blues
TTITLE5=Li'l Liza Jane
TTITLE6=Police and High Sheriff Come Ridin' Down
TTITLE7=Cut You Loose
TTITLE8=Ain't Goin' Down
TTITLE9=Try Me One More Time
TTITLE10=Mercedes Benz
TTITLE11=Drop Down Mama
TTITLE12=Goin' To Bronswille
TTITLE13=Shim Shaming
EXTD=
EXTT0=
EXTT1=
EXTT2=
EXTT3=
EXTT4=
EXTT5=
EXTT6=
EXTT7=
EXTT8=
EXTT9=
EXTT10=
EXTT11=
EXTT12=
EXTT13=
PLAYORDER=
